<svg width="40" height="40" viewBox="0 0 40 40" fill="none" xmlns="http://www.w3.org/2000/svg">
<path d="M40 5.33333L36 4L34.6667 0L31.2267 3.44C28.0267 1.26667 24.16 0 20 0C8.96 0 0 8.96 0 20C0 31.04 8.96 40 20 40C31.04 40 40 31.04 40 20C40 15.84 38.7333 11.9733 36.56 8.77333L40 5.33333ZM34.08 2.46667L34.7333 4.42667L34.9467 5.05333L35.5733 5.26667L37.5333 5.92L32.9733 10.48L30.3867 9.61333L29.52 7.02667L34.08 2.46667ZM38.6667 20C38.6667 24.9867 36.72 29.68 33.2 33.2C29.68 36.72 24.9867 38.6667 20 38.6667C15.0133 38.6667 10.32 36.72 6.8 33.2C3.28 29.68 1.33333 24.9867 1.33333 20C1.33333 15.0133 3.28 10.32 6.8 6.8C10.32 3.28 15.0133 1.33333 20 1.33333C23.7067 1.33333 27.24 2.4 30.2667 4.4L28 6.66667L29.0933 9.96L21.3467 17.7067C20.9467 17.4667 20.4933 17.3333 20 17.3333C18.5333 17.3333 17.3333 18.5333 17.3333 20C17.3333 21.4667 18.5333 22.6667 20 22.6667C21.4667 22.6667 22.6667 21.4667 22.6667 20C22.6667 19.5067 22.5333 19.04 22.2933 18.6533L30.04 10.9067L33.3333 12L35.6 9.73333C37.6 12.76 38.6667 16.2933 38.6667 20ZM19.5333 20.4667C19.6667 20.6 19.84 20.6667 20 20.6667C20.16 20.6667 20.3467 20.6 20.4667 20.4667L21.28 19.6533C21.3067 19.76 21.32 19.88 21.32 20C21.32 20.7333 20.72 21.3333 19.9867 21.3333C19.2533 21.3333 18.6533 20.7333 18.6533 20C18.6533 19.2667 19.2533 18.6667 19.9867 18.6667C20.1067 18.6667 20.2267 18.68 20.3333 18.7067L19.52 19.52C19.2667 19.7867 19.2667 20.2133 19.5333 20.4667Z" fill="white"/>
</svg>
