<svg width="30" height="30" viewBox="0 0 30 30" fill="none" xmlns="http://www.w3.org/2000/svg">
<path d="M0 0V29.9939H16.053C16.053 26.3728 16.053 22.3514 16.053 18.7303C16.053 18.3542 16.0348 18.336 15.6585 18.336C14.6267 18.336 13.595 18.33 12.5632 18.3421C12.2719 18.3482 12.1505 18.2693 12.1505 17.9539C12.1687 16.7105 12.1627 15.467 12.1505 14.2236C12.1505 13.9507 12.2294 13.8536 12.5147 13.8536C13.5464 13.8657 14.5782 13.8597 15.61 13.8597C16.0469 13.8597 16.0409 13.8597 16.0469 13.423C16.0712 12.1492 15.9802 10.8755 16.1076 9.60776C16.2351 8.29155 16.6721 7.10271 17.6067 6.14436C18.6324 5.10109 19.9251 4.65224 21.3514 4.58552C22.5652 4.52487 23.7791 4.59765 24.9869 4.6947C25.2357 4.7129 25.3207 4.81601 25.3146 5.05257C25.3085 6.17469 25.3085 7.29681 25.3146 8.41892C25.3146 8.67368 25.2235 8.75253 24.9808 8.75253C24.2221 8.7404 23.4635 8.73433 22.7048 8.75253C21.3696 8.78286 20.793 9.34695 20.6899 10.6632C20.617 11.5851 20.6717 12.501 20.6535 13.423C20.6474 13.8658 20.6595 13.8658 21.0844 13.8658C22.3285 13.8658 23.5727 13.8658 24.8169 13.8658C25.0172 13.8658 25.1507 13.8961 25.1143 14.1508C24.9444 15.4246 24.7805 16.6923 24.6227 17.966C24.5863 18.2511 24.477 18.3542 24.1796 18.3482C23.1479 18.33 22.1161 18.3421 21.0844 18.3421C20.6717 18.3421 20.6474 18.3664 20.6474 18.7606C20.6474 22.3696 20.6474 26.391 20.6474 30H30V0H0Z" fill="white"/>
</svg>
