<svg width="128" height="36" viewBox="0 0 128 36" fill="none" xmlns="http://www.w3.org/2000/svg">
<path d="M45.8141 4.61203H49.4206V10.6885L54.9944 4.61203H59.8032L53.4206 11.082L60.3496 20.9836H55.8687L50.9507 13.5738L49.4206 15.1257V20.9836H45.8141V4.61203Z" fill="#121238"/>
<path d="M74.929 12.5683C74.929 11.0601 74.4263 9.77051 73.399 8.67761C72.3716 7.58472 71.1257 7.03827 69.6394 7.03827C68.1749 7.03827 66.929 7.58472 65.9017 8.69947C64.8744 9.81422 64.3498 11.1038 64.3498 12.5902C64.3498 14.0984 64.8525 15.4099 65.8798 16.5246C66.9072 17.6612 68.1531 18.2077 69.6394 18.2077C71.1913 18.2077 72.4591 17.6394 73.4645 16.5246C74.4263 15.4536 74.929 14.1202 74.929 12.5683ZM78.2952 12.5902C78.2952 15.0383 77.4646 17.0929 75.7815 18.776C74.1203 20.459 72.0438 21.3115 69.6175 21.3115C67.2132 21.3115 65.1585 20.459 63.4755 18.7541C61.7924 17.0492 60.9399 14.9946 60.9399 12.5902C60.9399 10.1858 61.7924 8.15302 63.4973 6.46996C65.2022 4.7869 67.2569 3.9563 69.6394 3.9563C72.0438 3.9563 74.0984 4.7869 75.7815 6.46996C77.4646 8.13116 78.2952 10.1858 78.2952 12.5902Z" fill="#121238"/>
<path d="M84.6557 7.27862V12.0218H88.1092C90.1639 12.0218 91.1912 11.2349 91.1912 9.66114C91.1912 8.06551 90.2076 7.27862 88.1966 7.27862H84.6557ZM94.4262 9.44256C94.4262 10.6885 94.1201 11.7814 93.5081 12.6994C92.8961 13.6174 92.0218 14.2513 90.8633 14.6447C90.2294 14.8415 89.4863 14.9726 88.6338 15.0163H84.6557V20.9835H81.3333V4.28409H88.0874C89.0928 4.28409 89.9453 4.37152 90.6229 4.54638C91.8251 4.85239 92.7649 5.44256 93.4207 6.29502C94.0983 7.12562 94.4262 8.1748 94.4262 9.44256Z" fill="#121238"/>
<path d="M110.361 4.28409L103.366 20.9835H99.9126L101.53 17.1584L95.7159 4.28409H99.2569L103.148 13.224L106.863 4.28409H110.361Z" fill="#121238"/>
<path d="M127.65 15.7596C126.994 17.4864 125.967 18.8197 124.568 19.8252C123.191 20.8088 121.574 21.3115 119.759 21.3115C117.311 21.3115 115.235 20.459 113.552 18.776C111.869 17.0929 111.038 15.0164 111.038 12.5683C111.038 10.164 111.869 8.10931 113.552 6.4481C115.235 4.7869 117.268 3.9563 119.694 3.9563C121.574 3.9563 123.235 4.45903 124.656 5.44264C126.076 6.42624 127.082 7.82515 127.65 9.59565H123.978C122.994 7.89073 121.552 7.03827 119.672 7.03827C118.164 7.03827 116.918 7.58471 115.934 8.65575C114.929 9.72679 114.448 11.0164 114.448 12.5465C114.448 14.0547 114.951 15.3661 115.934 16.4809C116.962 17.6394 118.208 18.2295 119.716 18.2295C121.617 18.2295 123.038 17.4208 123.956 15.7814H127.65V15.7596Z" fill="#121238"/>
<path d="M24.3716 0V7.21312C24.3716 12.2623 23.1257 14.1858 23.1257 14.1858C21.4208 16.918 18.8853 17.9891 18.8853 17.9891C18.8853 17.9891 21.3989 19.0601 23.1038 21.7924C23.1038 21.7924 24.3497 23.7159 24.3497 28.765V35.9781H29.4426H35.9782V0H24.3716Z" fill="#121238"/>
<path d="M15.6503 28.7432C15.6503 28.7432 15.9126 22.4262 10.6229 21.7705C10.6229 21.7705 10.2732 21.7486 9.87978 21.7268C9.50819 21.7268 9.07104 21.7049 9.07104 21.7049V17.9891V14.2732C9.07104 14.2732 9.50819 14.2732 9.87978 14.2514C10.2732 14.2514 10.6229 14.2077 10.6229 14.2077C15.9126 13.5301 15.6503 7.23497 15.6503 7.23497V0H0V36H13.1366H15.6503V28.7432Z" fill="#121238"/>
<path d="M10.623 14.2295C10.623 14.2295 10.2733 14.2514 9.87985 14.2732C9.50826 14.2732 9.07111 14.2951 9.07111 14.2951V18.0109V21.7268C9.07111 21.7268 9.50826 21.7268 9.87985 21.7486C10.2733 21.7486 10.623 21.7923 10.623 21.7923C15.9126 22.4699 15.6503 28.765 15.6503 28.765V36H24.3717V28.7869C24.3717 23.7377 23.1258 21.8142 23.1258 21.8142C21.4208 19.082 18.8853 17.9891 18.8853 17.9891C18.8853 17.9891 21.399 16.918 23.1039 14.1858C23.1039 14.1858 24.3498 12.2623 24.3498 7.21311V0H15.6503V7.23497C15.6503 7.23497 15.8908 13.5519 10.623 14.2295Z" fill="#F9423A"/>
<path d="M45.8141 26.1858H46.907V28L48.5682 26.1858H50.0108L48.1092 28.1311L50.1857 31.1038H48.8305L47.366 28.8743L46.907 29.3333V31.1038H45.8141V26.1858Z" fill="#121238"/>
<path d="M54.6448 28.5683C54.6448 28.1093 54.4918 27.7377 54.1858 27.4098C53.8798 27.0819 53.5082 26.9289 53.0492 26.9289C52.6121 26.9289 52.2405 27.1038 51.9345 27.4317C51.6284 27.7595 51.4754 28.153 51.4754 28.5901C51.4754 29.0492 51.6284 29.4426 51.9345 29.7705C52.2405 30.0983 52.6121 30.2732 53.0711 30.2732C53.5301 30.2732 53.9235 30.0983 54.2295 29.7705C54.4918 29.4426 54.6448 29.0273 54.6448 28.5683ZM55.6503 28.5683C55.6503 29.3115 55.4099 29.9235 54.9071 30.4262C54.4044 30.9289 53.7924 31.1912 53.0492 31.1912C52.3279 31.1912 51.7159 30.9289 51.2131 30.4262C50.7104 29.9235 50.4481 29.2896 50.4481 28.5683C50.4481 27.847 50.7104 27.235 51.2131 26.7322C51.7159 26.2295 52.3279 25.9672 53.0492 25.9672C53.7705 25.9672 54.3826 26.2076 54.8853 26.7104C55.4099 27.235 55.6503 27.847 55.6503 28.5683Z" fill="#121238"/>
<path d="M60.3716 31.1039H59.3661V29.0056H57.5301V31.1039H56.5246V26.0766H57.5301V28.0875H59.3661V26.0766H60.3716V31.1039Z" fill="#121238"/>
<path d="M66.4482 29.53C66.2514 30.0546 65.9454 30.4481 65.5301 30.7541C65.1148 31.0601 64.6339 31.1912 64.0875 31.1912C63.3443 31.1912 62.7323 30.9289 62.2296 30.4262C61.7268 29.9235 61.4645 29.2896 61.4645 28.5683C61.4645 27.847 61.7268 27.2349 62.2296 26.7322C62.7323 26.2295 63.3443 25.989 64.0656 25.989C64.6339 25.989 65.1367 26.142 65.552 26.4262C65.9673 26.7322 66.2733 27.1475 66.4482 27.6721H65.3553C65.0492 27.1694 64.6339 26.9071 64.0656 26.9071C63.6066 26.9071 63.235 27.0601 62.9509 27.388C62.6449 27.7158 62.4919 28.1093 62.4919 28.5464C62.4919 29.0054 62.6449 29.3989 62.929 29.7268C63.235 30.0765 63.6066 30.2513 64.0656 30.2513C64.6339 30.2513 65.0711 30.0109 65.3334 29.5082H66.4482V29.53Z" fill="#121238"/>
<path d="M109.246 29.53C109.049 30.0546 108.743 30.4481 108.328 30.7541C107.913 31.0601 107.432 31.1912 106.885 31.1912C106.142 31.1912 105.53 30.9289 105.027 30.4262C104.525 29.9235 104.262 29.2896 104.262 28.5683C104.262 27.847 104.525 27.2349 105.027 26.7322C105.53 26.2295 106.142 25.989 106.863 25.989C107.432 25.989 107.934 26.142 108.35 26.4262C108.765 26.7322 109.071 27.1475 109.246 27.6721H108.153C107.847 27.1694 107.432 26.9071 106.863 26.9071C106.404 26.9071 106.033 27.0601 105.749 27.388C105.443 27.7158 105.29 28.1093 105.29 28.5464C105.29 29.0054 105.443 29.3989 105.727 29.7268C106.033 30.0765 106.404 30.2513 106.863 30.2513C107.432 30.2513 107.869 30.0109 108.131 29.5082H109.246V29.53Z" fill="#121238"/>
<path d="M69.8142 29.1585L69.2022 27.3225L68.5683 29.1585H69.8142ZM71.6066 31.1039H70.5137L70.1202 30.011H68.2623L67.8689 31.1039H66.7979L68.7869 26.0984H69.6394L71.6066 31.1039Z" fill="#121238"/>
<path d="M76.4153 31.1039H75.3662L74.164 27.3006L72.9618 31.1039H71.9126L73.6175 26.0766H74.7104L76.4153 31.1039Z" fill="#121238"/>
<path d="M79.6284 26.9728H78.6229V31.1039H77.6175V26.9728H76.6339V26.0766H79.6284V26.9728Z" fill="#121238"/>
<path d="M84.6338 31.1039H83.6283V27.7815L81.4207 31.1039H80.5682V26.0766H81.5518V29.399L83.7813 26.0766H84.6338V31.1039Z" fill="#121238"/>
<path d="M89.7704 31.1039H88.7649V29.0056H86.9289V31.1039H85.9234V26.0766H86.9289V28.0875H88.7649V26.0766H89.7704V31.1039Z" fill="#121238"/>
<path d="M93.705 26.9728H92.0656V31.1039H91.082V26.0766H93.705V26.9728Z" fill="#121238"/>
<path d="M101.18 30.1859H101.858V26.9728H101.18V26.0766H102.842V30.1859H103.476V31.1039H101.18V30.1859Z" fill="#121238"/>
<path d="M97.7049 26.0766H97.2021V31.0821H97.7049V26.0766Z" fill="#121238"/>
</svg>
