<svg width="40" height="40" viewBox="0 0 40 40" fill="none" xmlns="http://www.w3.org/2000/svg">
<path d="M20 9.33322C25.88 9.33322 30.6667 14.1199 30.6667 20C30.6667 25.88 25.88 30.6667 20 30.6667C14.12 30.6667 9.33333 25.88 9.33333 20C9.33333 14.1199 14.12 9.33322 20 9.33322ZM20 7.99988C13.3733 7.99988 8 13.3732 8 20C8 26.6267 13.3733 32 20 32C26.6267 32 32 26.6267 32 20C32 13.3732 26.6267 7.99988 20 7.99988Z" fill="#121239"/>
<path d="M20.6666 0H19.3333V5.33341H20.6666V0Z" fill="#121239"/>
<path d="M5.33331 19.3333H0V20.6665H5.33331V19.3333Z" fill="#121239"/>
<path d="M40.0001 19.3333H34.6667V20.6665H40.0001V19.3333Z" fill="#121239"/>
<path d="M20.6666 34.6666H19.3333V40H20.6666V34.6666Z" fill="#121239"/>
<path d="M33.6706 5.39116L29.8994 9.16241L30.8422 10.1052L34.6134 6.33397L33.6706 5.39116Z" fill="#121239"/>
<path d="M6.33368 5.38635L5.39087 6.32916L9.16211 10.1004L10.1049 9.1576L6.33368 5.38635Z" fill="#121239"/>
<path d="M30.8373 29.8995L29.8945 30.8423L33.6657 34.6136L34.6085 33.6708L30.8373 29.8995Z" fill="#121239"/>
<path d="M9.15742 29.8948L5.38623 33.6661L6.32903 34.6089L10.1002 30.8376L9.15742 29.8948Z" fill="#121239"/>
</svg>
