<svg width="30" height="30" viewBox="0 0 30 30" fill="none" xmlns="http://www.w3.org/2000/svg">
<path fill-rule="evenodd" clip-rule="evenodd" d="M30 0H0V30H30V0ZM17.3361 10.2284L7.05771 14.4591C5.24925 15.1623 6.308 15.8254 6.308 15.8254C6.308 15.8254 7.84175 16.3571 9.16948 16.7516C10.4972 17.1461 11.2011 16.7059 11.2011 16.7059L17.4334 12.5152C19.6368 11.0174 19.1045 12.2523 18.578 12.7782C17.4334 13.9274 15.5334 15.734 13.9481 17.1861C13.2385 17.8035 13.5933 18.3352 13.9024 18.5982C14.8052 19.3603 16.9434 20.7555 17.8936 21.3754C18.1481 21.5415 18.3173 21.6519 18.3548 21.6797C18.5723 21.857 19.8085 22.6516 20.5582 22.4744C21.3079 22.2972 21.3937 21.2852 21.3937 21.2852L22.4925 14.3676C22.5781 13.8047 22.6634 13.2519 22.7442 12.7283C22.9982 11.082 23.2075 9.72497 23.2422 9.25651C23.3739 7.75864 21.7886 8.37608 21.7886 8.37608C21.7886 8.37608 18.3491 9.7882 17.3361 10.2284Z" fill="white"/>
</svg>
