<svg width="30" height="30" viewBox="0 0 30 30" fill="none" xmlns="http://www.w3.org/2000/svg">
<path d="M4.59606 6.85206L2.25604 0H4.05606L5.42407 4.71604H5.46007L6.82808 0H8.62809L6.30008 6.85206V11.8681H4.59606V6.85206Z" fill="white"/>
<path d="M8.40002 6.25203C8.40002 5.90403 8.42402 5.59203 8.47202 5.30403C8.52003 5.01603 8.60403 4.76402 8.72403 4.53602C8.92803 4.16402 9.21603 3.87602 9.58803 3.64801C9.96004 3.42001 10.416 3.31201 10.932 3.31201C11.46 3.31201 11.9041 3.42001 12.2761 3.64801C12.6481 3.87602 12.9481 4.16402 13.1401 4.53602C13.2601 4.76402 13.3441 5.01603 13.3921 5.30403C13.4401 5.59203 13.4641 5.90403 13.4641 6.25203V9.03606C13.4641 9.38406 13.4401 9.69606 13.3921 9.98406C13.3441 10.2721 13.2601 10.5241 13.1401 10.7521C12.9361 11.1241 12.6481 11.4121 12.2761 11.6401C11.9041 11.8681 11.448 11.9761 10.932 11.9761C10.404 11.9761 9.96004 11.8681 9.58803 11.6401C9.21603 11.4121 8.91603 11.1241 8.72403 10.7521C8.60403 10.5241 8.52003 10.2721 8.47202 9.98406C8.42402 9.69606 8.40002 9.38406 8.40002 9.03606V6.25203ZM10.092 9.30006C10.092 9.62406 10.164 9.86406 10.32 10.0201C10.476 10.1761 10.668 10.2601 10.932 10.2601C11.184 10.2601 11.388 10.1761 11.544 10.0201C11.6881 9.86406 11.7721 9.61206 11.7721 9.30006V5.98803C11.7721 5.66403 11.7001 5.42403 11.544 5.26803C11.388 5.11203 11.196 5.02803 10.932 5.02803C10.68 5.02803 10.476 5.11203 10.32 5.26803C10.176 5.42403 10.092 5.67603 10.092 5.98803V9.30006Z" fill="white"/>
<path d="M20.2082 11.868H18.5042V11.052H18.4802C18.3002 11.316 18.0842 11.544 17.8442 11.712C17.5922 11.88 17.2802 11.976 16.8842 11.976C16.6682 11.976 16.4642 11.94 16.2482 11.868C16.0322 11.796 15.8522 11.676 15.6842 11.508C15.5162 11.34 15.3842 11.124 15.2882 10.872C15.1922 10.608 15.1442 10.296 15.1442 9.91197V3.43192H16.8482V9.28797C16.8482 9.59997 16.9202 9.83997 17.0642 10.02C17.2082 10.2 17.4122 10.284 17.6762 10.284C18.0002 10.284 18.2162 10.188 18.3482 9.98397C18.4682 9.77997 18.5282 9.49197 18.5282 9.11997V3.41992H20.2322V11.868H20.2082Z" fill="white"/>
<path d="M23.6762 21.3481C23.4242 21.3481 23.2202 21.4321 23.0642 21.5881C22.9202 21.7441 22.8362 21.9961 22.8362 22.3082V23.2802H24.5042V22.3202C24.5042 21.9962 24.4322 21.7561 24.2762 21.6001C24.1322 21.4321 23.9402 21.3481 23.6762 21.3481Z" fill="white"/>
<path d="M17.2802 21.3481C17.0402 21.3481 16.8362 21.4321 16.6682 21.6121C16.5122 21.7801 16.4282 22.0082 16.4282 22.2722V25.5602C16.4282 25.8722 16.5002 26.1242 16.6562 26.3162C16.8122 26.5082 17.0162 26.6042 17.2682 26.6042C17.5562 26.6042 17.7722 26.4962 17.9042 26.2922C18.0362 26.0762 18.1082 25.8002 18.1082 25.4642V22.3682C18.1082 22.1042 18.0482 21.8642 17.9282 21.6721C17.8202 21.4561 17.6042 21.3481 17.2802 21.3481Z" fill="white"/>
<path d="M0 13.6318V30H30.0002V13.6318H0ZM7.80006 17.9279H5.83205V28.2H4.12803V17.9279H2.16002V16.3319H7.80006V17.9279ZM12.9121 28.2H11.2081V27.3839H11.1721C10.9921 27.6479 10.7761 27.876 10.5361 28.044C10.2841 28.212 9.97208 28.308 9.57608 28.308C9.36008 28.308 9.15607 28.272 8.94007 28.2C8.72407 28.128 8.54407 28.008 8.37607 27.84C8.20807 27.672 8.07607 27.4559 7.98006 27.2039C7.88406 26.9399 7.83606 26.6279 7.83606 26.2439V19.7639H9.54008V25.6199C9.54008 25.9319 9.61208 26.1719 9.75608 26.3519C9.90008 26.5319 10.1041 26.6159 10.3681 26.6159C10.6921 26.6159 10.9081 26.5199 11.0401 26.3159C11.1601 26.1119 11.2201 25.8239 11.2201 25.4519V19.7639H12.9241V28.2H12.9121ZM19.8122 25.6799C19.8122 26.1479 19.7882 26.5199 19.7402 26.7959C19.6922 27.0719 19.6202 27.3119 19.5242 27.4919C19.2362 28.02 18.7442 28.296 18.0361 28.296C17.6161 28.296 17.2921 28.212 17.0641 28.044C16.8361 27.876 16.6201 27.672 16.4161 27.4319V28.2H14.7121V16.3319H16.4161V20.5199H16.4521C16.6441 20.2439 16.8601 20.0279 17.1241 19.8839C17.3881 19.7399 17.6881 19.6559 18.0121 19.6559C18.4202 19.6559 18.7442 19.7279 18.9722 19.8719C19.2002 20.0159 19.3802 20.1959 19.5362 20.4239C19.6442 20.6039 19.7162 20.8319 19.7522 21.1199C19.7882 21.4079 19.8002 21.8639 19.8002 22.4639V25.6799H19.8122ZM26.2082 24.6119H22.8362V25.7639C22.8362 26.0279 22.9082 26.2319 23.0642 26.3759C23.2202 26.5199 23.4122 26.5919 23.6762 26.5919C24.0002 26.5919 24.2162 26.4959 24.3122 26.3039C24.4202 26.1119 24.4802 25.9319 24.5042 25.7399H26.2082C26.2082 26.0999 26.1482 26.4239 26.0282 26.7359C25.9082 27.0479 25.7402 27.3119 25.5242 27.5399C25.2962 27.768 25.0322 27.96 24.7202 28.092C24.4082 28.224 24.0602 28.296 23.6762 28.296C23.1482 28.296 22.7042 28.188 22.3322 27.96C21.9602 27.732 21.6602 27.4439 21.4682 27.0719C21.3482 26.8439 21.2642 26.5919 21.2162 26.3039C21.1682 26.0159 21.1442 25.7039 21.1442 25.3559V22.5719C21.1442 22.2239 21.1682 21.9119 21.2162 21.6239C21.2642 21.3359 21.3482 21.0839 21.4682 20.8559C21.6722 20.4839 21.9602 20.1959 22.3322 19.9679C22.7042 19.7399 23.1602 19.6319 23.6762 19.6319C24.0602 19.6319 24.4202 19.7039 24.7322 19.8359C25.0442 19.9679 25.3202 20.1599 25.5362 20.3999C25.7522 20.6399 25.9202 20.9159 26.0402 21.2399C26.1602 21.5639 26.2202 21.9119 26.2202 22.2719V24.6119H26.2082Z" fill="white"/>
</svg>
